{
    "asset": {
        "version": "1.0",
        "generator": "Open Asset Import Library (assimp v4.1.0)"
    },
    "accessors": {
        "Cat_mesh_accessor": {
            "bufferView": "Cat_mesh_view",
            "byteOffset": 0,
            "byteStride": 0,
            "componentType": 5126,
            "count": 65535,
            "type": "VEC3",
            "max": [
                6.135499954223633,
                38.125301361083987,
                35.49829864501953
            ],
            "min": [
                -0.05169999971985817,
                -22.255399703979493,
                0.0052999998442828659
            ]
        },
        "Cat_mesh_accessor_0": {
            "bufferView": "Cat_mesh_view_0",
            "byteOffset": 0,
            "byteStride": 0,
            "componentType": 5126,
            "count": 65535,
            "type": "VEC3",
            "max": [
                1.0,
                0.9995999932289124,
                1.0
            ],
            "min": [
                -0.9998000264167786,
                -1.0,
                -1.0
            ]
        },
        "Cat_mesh_accessor_1": {
            "bufferView": "Cat_mesh_view_1",
            "byteOffset": 0,
            "byteStride": 0,
            "componentType": 5126,
            "count": 65535,
            "type": "VEC2",
            "max": [
                0.9818999767303467,
                0.9688000082969666
            ],
            "min": [
                0.49959999322891238,
                0.03259998559951782
            ]
        },
        "Cat_mesh_accessor_2": {
            "bufferView": "Cat_mesh_view_2",
            "byteOffset": 0,
            "byteStride": 0,
            "componentType": 5123,
            "count": 65535,
            "type": "SCALAR",
            "max": [
                65534.0
            ],
            "min": [
                0.0
            ]
        },
        "Cat_mesh_0_accessor": {
            "bufferView": "Cat_mesh_0_view",
            "byteOffset": 0,
            "byteStride": 0,
            "componentType": 5126,
            "count": 40329,
            "type": "VEC3",
            "max": [
                6.277599811553955,
                38.627899169921878,
                37.61259841918945
            ],
            "min": [
                -0.6207000017166138,
                -22.041200637817384,
                0.006800000090152025
            ]
        },
        "Cat_mesh_0_accessor_0": {
            "bufferView": "Cat_mesh_0_view_0",
            "byteOffset": 0,
            "byteStride": 0,
            "componentType": 5126,
            "count": 40329,
            "type": "VEC3",
            "max": [
                0.9998999834060669,
                1.0,
                1.0
            ],
            "min": [
                -0.9998000264167786,
                -1.0,
                -1.0
            ]
        },
        "Cat_mesh_0_accessor_1": {
            "bufferView": "Cat_mesh_0_view_1",
            "byteOffset": 0,
            "byteStride": 0,
            "componentType": 5126,
            "count": 40329,
            "type": "VEC2",
            "max": [
                0.9843000173568726,
                0.9402999877929688
            ],
            "min": [
                0.24490000307559968,
                0.015799999237060548
            ]
        },
        "Cat_mesh_0_accessor_2": {
            "bufferView": "Cat_mesh_0_view_2",
            "byteOffset": 0,
            "byteStride": 0,
            "componentType": 5123,
            "count": 40329,
            "type": "SCALAR",
            "max": [
                40328.0
            ],
            "min": [
                0.0
            ]
        },
        "Cat_mesh_1_accessor": {
            "bufferView": "Cat_mesh_1_view",
            "byteOffset": 0,
            "byteStride": 0,
            "componentType": 5126,
            "count": 65535,
            "type": "VEC3",
            "max": [
                0.07280000299215317,
                38.125301361083987,
                35.49829864501953
            ],
            "min": [
                -6.135499954223633,
                -22.255399703979493,
                0.0052999998442828659
            ]
        },
        "Cat_mesh_1_accessor_0": {
            "bufferView": "Cat_mesh_1_view_0",
            "byteOffset": 0,
            "byteStride": 0,
            "componentType": 5126,
            "count": 65535,
            "type": "VEC3",
            "max": [
                0.9998000264167786,
                0.9995999932289124,
                1.0
            ],
            "min": [
                -1.0,
                -1.0,
                -1.0
            ]
        },
        "Cat_mesh_1_accessor_1": {
            "bufferView": "Cat_mesh_1_view_1",
            "byteOffset": 0,
            "byteStride": 0,
            "componentType": 5126,
            "count": 65535,
            "type": "VEC2",
            "max": [
                0.7990999817848206,
                0.9688000082969666
            ],
            "min": [
                0.006800000090152025,
                0.03259998559951782
            ]
        },
        "Cat_mesh_1_accessor_2": {
            "bufferView": "Cat_mesh_1_view_2",
            "byteOffset": 0,
            "byteStride": 0,
            "componentType": 5123,
            "count": 65535,
            "type": "SCALAR",
            "max": [
                65534.0
            ],
            "min": [
                0.0
            ]
        },
        "Cat_mesh_2_accessor": {
            "bufferView": "Cat_mesh_2_view",
            "byteOffset": 0,
            "byteStride": 0,
            "componentType": 5126,
            "count": 40329,
            "type": "VEC3",
            "max": [
                1.4930999279022217,
                38.627899169921878,
                37.61259841918945
            ],
            "min": [
                -6.277599811553955,
                -22.041200637817384,
                0.006800000090152025
            ]
        },
        "Cat_mesh_2_accessor_0": {
            "bufferView": "Cat_mesh_2_view_0",
            "byteOffset": 0,
            "byteStride": 0,
            "componentType": 5126,
            "count": 40329,
            "type": "VEC3",
            "max": [
                0.9998000264167786,
                1.0,
                1.0
            ],
            "min": [
                -0.9998999834060669,
                -1.0,
                -1.0
            ]
        },
        "Cat_mesh_2_accessor_1": {
            "bufferView": "Cat_mesh_2_view_1",
            "byteOffset": 0,
            "byteStride": 0,
            "componentType": 5126,
            "count": 40329,
            "type": "VEC2",
            "max": [
                0.8073999881744385,
                0.9406999945640564
            ],
            "min": [
                0.015699999406933786,
                0.01789999008178711
            ]
        },
        "Cat_mesh_2_accessor_2": {
            "bufferView": "Cat_mesh_2_view_2",
            "byteOffset": 0,
            "byteStride": 0,
            "componentType": 5123,
            "count": 40329,
            "type": "SCALAR",
            "max": [
                40328.0
            ],
            "min": [
                0.0
            ]
        }
    },
    "buffers": {
        "../../download/skj9ddms0sx9/skj9ddms0sx9": {
            "byteLength": 7198758,
            "type": "arraybuffer",
            "uri": "../../download/skj9ddms0sx9/skj9ddms0sx9.bin"
        }
    },
    "bufferViews": {
        "Cat_mesh_view": {
            "buffer": "../../download/skj9ddms0sx9/skj9ddms0sx9",
            "byteOffset": 0,
            "byteLength": 786420,
            "target": 34962
        },
        "Cat_mesh_view_0": {
            "buffer": "../../download/skj9ddms0sx9/skj9ddms0sx9",
            "byteOffset": 786420,
            "byteLength": 786420,
            "target": 34962
        },
        "Cat_mesh_view_1": {
            "buffer": "../../download/skj9ddms0sx9/skj9ddms0sx9",
            "byteOffset": 1572840,
            "byteLength": 524280,
            "target": 34962
        },
        "Cat_mesh_view_2": {
            "buffer": "../../download/skj9ddms0sx9/skj9ddms0sx9",
            "byteOffset": 2097120,
            "byteLength": 131070,
            "target": 34963
        },
        "Cat_mesh_0_view": {
            "buffer": "../../download/skj9ddms0sx9/skj9ddms0sx9",
            "byteOffset": 2228192,
            "byteLength": 483948,
            "target": 34962
        },
        "Cat_mesh_0_view_0": {
            "buffer": "../../download/skj9ddms0sx9/skj9ddms0sx9",
            "byteOffset": 2712140,
            "byteLength": 483948,
            "target": 34962
        },
        "Cat_mesh_0_view_1": {
            "buffer": "../../download/skj9ddms0sx9/skj9ddms0sx9",
            "byteOffset": 3196088,
            "byteLength": 322632,
            "target": 34962
        },
        "Cat_mesh_0_view_2": {
            "buffer": "../../download/skj9ddms0sx9/skj9ddms0sx9",
            "byteOffset": 3518720,
            "byteLength": 80658,
            "target": 34963
        },
        "Cat_mesh_1_view": {
            "buffer": "../../download/skj9ddms0sx9/skj9ddms0sx9",
            "byteOffset": 3599380,
            "byteLength": 786420,
            "target": 34962
        },
        "Cat_mesh_1_view_0": {
            "buffer": "../../download/skj9ddms0sx9/skj9ddms0sx9",
            "byteOffset": 4385800,
            "byteLength": 786420,
            "target": 34962
        },
        "Cat_mesh_1_view_1": {
            "buffer": "../../download/skj9ddms0sx9/skj9ddms0sx9",
            "byteOffset": 5172220,
            "byteLength": 524280,
            "target": 34962
        },
        "Cat_mesh_1_view_2": {
            "buffer": "../../download/skj9ddms0sx9/skj9ddms0sx9",
            "byteOffset": 5696500,
            "byteLength": 131070,
            "target": 34963
        },
        "Cat_mesh_2_view": {
            "buffer": "../../download/skj9ddms0sx9/skj9ddms0sx9",
            "byteOffset": 5827572,
            "byteLength": 483948,
            "target": 34962
        },
        "Cat_mesh_2_view_0": {
            "buffer": "../../download/skj9ddms0sx9/skj9ddms0sx9",
            "byteOffset": 6311520,
            "byteLength": 483948,
            "target": 34962
        },
        "Cat_mesh_2_view_1": {
            "buffer": "../../download/skj9ddms0sx9/skj9ddms0sx9",
            "byteOffset": 6795468,
            "byteLength": 322632,
            "target": 34962
        },
        "Cat_mesh_2_view_2": {
            "buffer": "../../download/skj9ddms0sx9/skj9ddms0sx9",
            "byteOffset": 7118100,
            "byteLength": 80658,
            "target": 34963
        }
    },
    "materials": {
        "DefaultMaterial": {
            "values": {
                "ambient": [
                    0.0,
                    0.0,
                    0.0,
                    1.0
                ],
                "diffuse": [
                    0.6000000238418579,
                    0.6000000238418579,
                    0.6000000238418579,
                    1.0
                ],
                "specular": [
                    0.0,
                    0.0,
                    0.0,
                    1.0
                ],
                "emission": [
                    0.0,
                    0.0,
                    0.0,
                    1.0
                ],
                "shininess": 0.0
            }
        },
        "Cat": {
            "values": {
                "ambient": [
                    0.0,
                    0.0,
                    0.0,
                    1.0
                ],
                "diffuse": [
                    0.6000000238418579,
                    0.6000000238418579,
                    0.6000000238418579,
                    1.0
                ],
                "specular": [
                    0.0,
                    0.0,
                    0.0,
                    1.0
                ],
                "emission": [
                    0.0,
                    0.0,
                    0.0,
                    1.0
                ],
                "shininess": 0.0
            }
        }
    },
    "meshes": {
        "Cat_mesh": {
            "name": "",
            "primitives": [
                {
                    "mode": 4,
                    "material": "Cat",
                    "indices": "Cat_mesh_accessor_2",
                    "attributes": {
                        "POSITION": "Cat_mesh_accessor",
                        "NORMAL": "Cat_mesh_accessor_0",
                        "TEXCOORD_0": "Cat_mesh_accessor_1"
                    }
                }
            ]
        },
        "Cat_mesh_0": {
            "name": "",
            "primitives": [
                {
                    "mode": 4,
                    "material": "Cat",
                    "indices": "Cat_mesh_0_accessor_2",
                    "attributes": {
                        "POSITION": "Cat_mesh_0_accessor",
                        "NORMAL": "Cat_mesh_0_accessor_0",
                        "TEXCOORD_0": "Cat_mesh_0_accessor_1"
                    }
                }
            ]
        },
        "Cat_mesh_1": {
            "name": "",
            "primitives": [
                {
                    "mode": 4,
                    "material": "Cat",
                    "indices": "Cat_mesh_1_accessor_2",
                    "attributes": {
                        "POSITION": "Cat_mesh_1_accessor",
                        "NORMAL": "Cat_mesh_1_accessor_0",
                        "TEXCOORD_0": "Cat_mesh_1_accessor_1"
                    }
                }
            ]
        },
        "Cat_mesh_2": {
            "name": "",
            "primitives": [
                {
                    "mode": 4,
                    "material": "Cat",
                    "indices": "Cat_mesh_2_accessor_2",
                    "attributes": {
                        "POSITION": "Cat_mesh_2_accessor",
                        "NORMAL": "Cat_mesh_2_accessor_0",
                        "TEXCOORD_0": "Cat_mesh_2_accessor_1"
                    }
                }
            ]
        }
    },
    "nodes": {
        "skj9ddms0sx9.obj": {
            "children": [
                "Cat_node"
            ]
        },
        "Cat_node": {
            "meshes": [
                "Cat_mesh",
                "Cat_mesh_0",
                "Cat_mesh_1",
                "Cat_mesh_2"
            ]
        }
    },
    "scenes": {
        "defaultScene": {
            "nodes": [
                "skj9ddms0sx9.obj"
            ]
        }
    },
    "scene": "defaultScene"
}